<svg width="36" height="36" viewBox="0 0 36 36" fill="none" xmlns="http://www.w3.org/2000/svg">
<g clip-path="url(#clip0_249_8821)">
<path d="M20.6108 4.39704C20.6108 6.67363 18.7653 8.51918 16.4887 8.51918C14.2121 8.51918 12.3666 6.67363 12.3666 4.39704C12.3666 2.12045 14.2121 0.274902 16.4887 0.274902C18.7653 0.274902 20.6108 2.12045 20.6108 4.39704ZM14.0574 4.39704C14.0574 5.73982 15.1459 6.82835 16.4887 6.82835C17.8315 6.82835 18.92 5.73982 18.92 4.39704C18.92 3.05426 17.8315 1.96573 16.4887 1.96573C15.1459 1.96573 14.0574 3.05426 14.0574 4.39704Z" fill="url(#paint0_linear_249_8821)"/>
<path d="M19.0304 11.2474C28.8861 12.6835 27.401 3.02295 27.401 3.02295C27.1763 4.11353 22.2078 8.6154 16.1324 7.83211C13.7741 7.52806 9.47466 7.76118 7.01455 9.15869C3.13701 11.3614 0.700481 14.9492 2.55923 13.3362C7.8246 8.76704 9.17471 9.81142 19.0304 11.2474Z" fill="url(#paint1_linear_249_8821)"/>
<path d="M24.5093 21.1784C24.045 19.2241 22.8831 17.5065 21.2419 16.3483C19.6008 15.1901 17.5932 14.6709 15.5963 14.8882C13.5994 15.1056 11.7505 16.0445 10.3969 17.5287C9.04333 19.0129 8.27818 20.9401 8.24516 22.9486C8.21213 24.957 8.91352 26.9084 10.2176 28.4363C11.5216 29.9642 13.3386 30.9634 15.3273 31.2462C17.316 31.5291 19.3396 31.0762 21.0179 29.9726C22.6963 28.8689 23.914 27.1905 24.4423 25.2525L22.8501 24.8184C22.4275 26.3685 21.4536 27.7109 20.1112 28.5936C18.7688 29.4763 17.1503 29.8386 15.5597 29.6123C13.9691 29.3861 12.5159 28.5869 11.4729 27.3649C10.4299 26.1429 9.86889 24.5821 9.8953 22.9757C9.92171 21.3693 10.5337 19.8279 11.6163 18.6408C12.6989 17.4537 14.1777 16.7028 15.7749 16.5289C17.372 16.3551 18.9777 16.7703 20.2904 17.6967C21.603 18.6231 22.5323 19.9968 22.9036 21.5599L24.5093 21.1784Z" fill="url(#paint2_linear_249_8821)"/>
<path d="M25.4436 19.9001C24.1373 16.8357 22.4957 15.6263 18.0166 14.3367C22.5457 14.6049 24.6573 15.7221 26.7936 19.5114L25.4436 19.9001Z" fill="url(#paint3_linear_249_8821)"/>
<path d="M24.0456 23.7482C20.4268 24.7455 18.361 24.4397 14.5647 21.2749C17.5521 22.4898 23.6334 20.1757 26.7937 19.2139C29.954 18.252 33.6436 20.1532 34.9006 23.0612C32.7069 21.5732 30.3747 21.6855 24.0456 23.7482Z" fill="url(#paint4_linear_249_8821)"/>
<path d="M27.479 24.458L25.8305 24.4894C24.7285 29.1441 22.7841 30.6625 17.7291 32.065C23.9354 31.8114 26.0652 30.1404 27.479 24.458Z" fill="url(#paint5_linear_249_8821)"/>
<path d="M13.0392 12.5821C13.6641 12.5428 14.2802 12.5564 14.8839 12.6156C9.81181 13.5899 6.13398 18.2042 6.46731 23.4945C6.8292 29.2345 11.7756 33.5946 17.5156 33.2331C19.1178 33.1321 20.6119 32.6724 21.9264 31.9395C20.0212 33.8944 17.4134 35.1769 14.4746 35.3621C8.18402 35.7585 2.76294 30.9808 2.36643 24.6903C1.97006 18.3997 6.74859 12.9785 13.0392 12.5821Z" fill="url(#paint6_linear_249_8821)"/>
</g>
<defs>
<linearGradient id="paint0_linear_249_8821" x1="16.4887" y1="0.274902" x2="16.4887" y2="8.51918" gradientUnits="userSpaceOnUse">
<stop stop-color="white"/>
<stop offset="1" stop-color="#F89500"/>
</linearGradient>
<linearGradient id="paint1_linear_249_8821" x1="14.702" y1="3.02295" x2="14.702" y2="13.7405" gradientUnits="userSpaceOnUse">
<stop stop-color="white"/>
<stop offset="1" stop-color="#F89500"/>
</linearGradient>
<linearGradient id="paint2_linear_249_8821" x1="16.4883" y1="14.8398" x2="16.4883" y2="31.3284" gradientUnits="userSpaceOnUse">
<stop stop-color="white"/>
<stop offset="1" stop-color="#F89500"/>
</linearGradient>
<linearGradient id="paint3_linear_249_8821" x1="22.7289" y1="14.9915" x2="22.0031" y2="19.3236" gradientUnits="userSpaceOnUse">
<stop stop-color="white"/>
<stop offset="1" stop-color="#F89500"/>
</linearGradient>
<linearGradient id="paint4_linear_249_8821" x1="24.7326" y1="18.9619" x2="24.7326" y2="24.2543" gradientUnits="userSpaceOnUse">
<stop stop-color="white"/>
<stop offset="1" stop-color="#F89500"/>
</linearGradient>
<linearGradient id="paint5_linear_249_8821" x1="22.5334" y1="24.5522" x2="22.6747" y2="31.9707" gradientUnits="userSpaceOnUse">
<stop stop-color="white"/>
<stop offset="1" stop-color="#F89500"/>
</linearGradient>
<linearGradient id="paint6_linear_249_8821" x1="11.1625" y1="12.7004" x2="12.5978" y2="35.4804" gradientUnits="userSpaceOnUse">
<stop stop-color="white"/>
<stop offset="1" stop-color="#F89500"/>
</linearGradient>
<clipPath id="clip0_249_8821">
<rect width="36" height="36" fill="white"/>
</clipPath>
</defs>
</svg>
